<svg width="257" height="35" viewBox="0 0 257 35" fill="none" xmlns="http://www.w3.org/2000/svg">
<rect x="0.364258" y="0.38501" width="37.8706" height="3.25054" fill="#ED5521"/>
<rect x="3.30371" y="0.38501" width="18.2502" height="3.25054" transform="rotate(90 3.30371 0.38501)" fill="#ED5521"/>
<path d="M38.2343 0.38501L38.2344 23.8058L34.9838 23.8058L34.9838 0.38501L38.2343 0.38501Z" fill="#ED5521"/>
<path d="M24.9541 9.18066L37.9362 22.1627L34.9806 23.8041L22.6645 11.4703L24.9541 9.18066Z" fill="#ED5521"/>
<path d="M27.0988 11.3349L15.9648 22.7576L11.9626 22.1628L24.9447 9.18077L27.0988 11.3349Z" fill="#ED5521"/>
<rect x="0.0527344" y="31.5586" width="37.8706" height="3.25054" fill="#ED5521"/>
<rect x="0.0527344" y="22.1516" width="15.9961" height="3.25054" fill="#ED5521"/>
<rect x="28.3604" y="22.1516" width="12.6577" height="6.77272" transform="rotate(90 28.3604 22.1516)" fill="#ED5521"/>
<rect x="16.0488" y="22.1516" width="12.6577" height="3.25054" transform="rotate(90 16.0488 22.1516)" fill="#ED5521"/>
<rect x="3.30371" y="22.1516" width="12.6577" height="3.25054" transform="rotate(90 3.30371 22.1516)" fill="#ED5521"/>
<path d="M72.8007 19.9964H67.9718C67.4319 23.0857 65.0624 25.2453 62.003 25.2453C58.3138 25.2453 55.8243 22.3059 55.8243 18.0768C55.8243 13.8777 58.3138 10.9683 62.003 10.9683C65.0624 10.9683 67.4619 13.0979 67.9718 16.1872H72.8007C72.0509 10.6684 67.6118 6.8892 61.943 6.8892C55.8843 6.8892 51.1453 11.7782 51.1453 18.0768C51.1453 24.4055 55.8843 29.3244 61.943 29.3244C67.6118 29.3244 72.0509 25.5752 72.8007 19.9964ZM90.8009 20.8662C90.8009 16.1872 87.2916 12.558 82.6726 12.558C78.0236 12.558 74.5443 16.1872 74.5443 20.8662C74.5443 25.5152 78.0236 29.1744 82.6726 29.1744C87.2916 29.1744 90.8009 25.5152 90.8009 20.8662ZM78.8334 20.8662C78.8334 17.8969 80.603 16.2772 82.6726 16.2772C84.7422 16.2772 86.4818 17.8969 86.4818 20.8662C86.4818 23.8356 84.7422 25.4852 82.6726 25.4852C80.5731 25.4852 78.8334 23.8356 78.8334 20.8662ZM97.452 20.1464C97.452 17.5669 98.8617 16.2472 100.511 16.2472C102.401 16.2472 103.331 17.5669 103.331 19.9364V28.8745H107.47V18.5267C107.47 14.6575 105.28 12.558 102.071 12.558C99.9414 12.558 98.3218 13.5478 97.122 15.1374V12.8579H93.3128V28.8745H97.452V20.1464ZM124.266 23.7456C124.266 21.4061 122.707 19.9964 119.557 19.3965L116.498 18.8267C115.058 18.5867 114.399 18.1368 114.399 17.297C114.399 16.3072 115.388 15.5873 116.948 15.5873C118.688 15.5873 119.887 16.5471 120.037 18.1368H123.997C123.727 14.6875 120.967 12.528 116.918 12.528C113.169 12.528 110.409 14.6275 110.409 17.5969C110.409 20.1464 112.179 21.676 114.998 22.1859L117.908 22.7258C119.408 23.0258 120.097 23.4757 120.097 24.3455C120.097 25.4252 119.048 26.1151 117.098 26.1151C115.088 26.1151 113.769 25.0953 113.709 23.4157H109.75C110.05 27.0149 112.899 29.1744 117.188 29.1744C121.627 29.1744 124.266 27.0149 124.266 23.7456ZM136.898 28.4546V24.8254C136.299 25.1553 135.579 25.3353 134.799 25.3353C133.269 25.3353 132.429 24.5854 132.429 22.7258V16.4272H137.018V12.8579H132.429V8.11894H128.29V12.8579H125.081V16.4272H128.29V23.6856C128.29 27.2849 130.39 29.1744 133.689 29.1744C134.919 29.1744 135.879 28.9645 136.898 28.4546ZM143.848 21.1062C143.848 17.5669 146.248 16.6971 149.787 16.997V12.7979C147.118 12.528 144.688 13.9077 143.518 15.9473V12.8579H139.709V28.8745H143.848V21.1062ZM161.763 28.8745H165.572V12.8579H161.433V22.1259C161.433 24.2855 160.083 25.4852 158.583 25.4852C156.964 25.4852 155.854 24.4954 155.854 22.2459V12.8579H151.715V23.0558C151.715 27.2249 154.054 29.1744 157.264 29.1744C159.273 29.1744 160.893 28.1547 161.763 26.745V28.8745ZM183.665 22.036H179.286C179.076 23.9256 177.847 25.4852 175.897 25.4852C173.797 25.4852 172.358 23.5656 172.358 20.8662C172.358 18.0768 173.797 16.2772 175.897 16.2772C177.877 16.2772 179.076 17.7769 179.286 19.6965H183.665C183.185 15.4374 180.126 12.558 175.867 12.558C171.368 12.558 168.099 16.0672 168.099 20.8662C168.099 25.6052 171.368 29.1744 175.867 29.1744C180.066 29.1744 183.185 26.2951 183.665 22.036ZM196.241 28.4546V24.8254C195.641 25.1553 194.922 25.3353 194.142 25.3353C192.612 25.3353 191.772 24.5854 191.772 22.7258V16.4272H196.361V12.8579H191.772V8.11894H187.633V12.8579H184.424V16.4272H187.633V23.6856C187.633 27.2849 189.733 29.1744 193.032 29.1744C194.262 29.1744 195.222 28.9645 196.241 28.4546ZM214.29 20.8662C214.29 16.1872 210.781 12.558 206.162 12.558C201.513 12.558 198.034 16.1872 198.034 20.8662C198.034 25.5152 201.513 29.1744 206.162 29.1744C210.781 29.1744 214.29 25.5152 214.29 20.8662ZM202.323 20.8662C202.323 17.8969 204.092 16.2772 206.162 16.2772C208.231 16.2772 209.971 17.8969 209.971 20.8662C209.971 23.8356 208.231 25.4852 206.162 25.4852C204.062 25.4852 202.323 23.8356 202.323 20.8662ZM220.941 21.1062C220.941 17.5669 223.341 16.6971 226.88 16.997V12.7979C224.211 12.528 221.781 13.9077 220.611 15.9473V12.8579H216.802V28.8745H220.941V21.1062ZM241.844 28.8745L246.493 21.2261L251.262 28.8745H256.871L250.003 18.0468L256.481 7.3391H251.172L246.793 14.5976L242.474 7.3391H236.746L243.254 17.8669L236.266 28.8745H241.844Z" fill="white"/>
</svg>
