<svg width="211" height="29" viewBox="0 0 211 29" fill="none" xmlns="http://www.w3.org/2000/svg">
<rect x="0.297852" y="0.108398" width="30.928" height="2.65463" fill="#ED5521"/>
<rect x="2.69922" y="0.108398" width="14.9045" height="2.65463" transform="rotate(90 2.69922 0.108398)" fill="#ED5521"/>
<path d="M31.2255 0.108398L31.2256 19.2356L28.571 19.2356L28.571 0.108398L31.2255 0.108398Z" fill="#ED5521"/>
<path d="M20.3809 7.29175L30.983 17.8939L28.5692 19.2343L18.511 9.1616L20.3809 7.29175Z" fill="#ED5521"/>
<path d="M22.1312 9.05084L13.0383 18.3794L9.76979 17.8937L20.3719 7.29159L22.1312 9.05084Z" fill="#ED5521"/>
<rect x="0.0439453" y="25.5671" width="30.928" height="2.65463" fill="#ED5521"/>
<rect x="0.0439453" y="17.8845" width="13.0636" height="2.65463" fill="#ED5521"/>
<rect x="23.1621" y="17.8845" width="10.3372" height="5.53111" transform="rotate(90 23.1621 17.8845)" fill="#ED5521"/>
<rect x="13.1074" y="17.8845" width="10.3372" height="2.65463" transform="rotate(90 13.1074 17.8845)" fill="#ED5521"/>
<rect x="2.69824" y="17.8845" width="10.3372" height="2.65463" transform="rotate(90 2.69824 17.8845)" fill="#ED5521"/>
<path d="M59.4546 16.6242H55.5109C55.07 19.1472 53.1349 20.9109 50.6364 20.9109C47.6235 20.9109 45.5904 18.5103 45.5904 15.0565C45.5904 11.6272 47.6235 9.25121 50.6364 9.25121C53.1349 9.25121 55.0945 10.9904 55.5109 13.5134H59.4546C58.8422 9.00626 55.217 5.91989 50.5874 5.91989C45.6394 5.91989 41.7692 9.91258 41.7692 15.0565C41.7692 20.225 45.6394 24.2422 50.5874 24.2422C55.217 24.2422 58.8422 21.1803 59.4546 16.6242ZM74.1549 17.3346C74.1549 13.5134 71.289 10.5494 67.5167 10.5494C63.72 10.5494 60.8786 13.5134 60.8786 17.3346C60.8786 21.1313 63.72 24.1197 67.5167 24.1197C71.289 24.1197 74.1549 21.1313 74.1549 17.3346ZM64.3814 17.3346C64.3814 14.9096 65.8266 13.5868 67.5167 13.5868C69.2069 13.5868 70.6276 14.9096 70.6276 17.3346C70.6276 19.7596 69.2069 21.1068 67.5167 21.1068C65.8021 21.1068 64.3814 19.7596 64.3814 17.3346ZM79.5867 16.7467C79.5867 14.6401 80.7379 13.5623 82.0852 13.5623C83.6284 13.5623 84.3877 14.6401 84.3877 16.5752V23.8748H87.768V15.424C87.768 12.2641 85.9799 10.5494 83.3589 10.5494C81.6198 10.5494 80.297 11.3578 79.3172 12.656V10.7944H76.2064V23.8748H79.5867V16.7467ZM101.485 19.6861C101.485 17.7755 100.212 16.6242 97.6397 16.1343L95.1412 15.6689C93.9655 15.473 93.4266 15.1055 93.4266 14.4197C93.4266 13.6113 94.2349 13.0234 95.5086 13.0234C96.9294 13.0234 97.9092 13.8073 98.0316 15.1055H101.265C101.045 12.2886 98.791 10.525 95.4842 10.525C92.4223 10.525 90.1687 12.2396 90.1687 14.6646C90.1687 16.7467 91.6139 17.9959 93.9165 18.4124L96.2925 18.8533C97.5172 19.0982 98.0806 19.4656 98.0806 20.176C98.0806 21.0578 97.2233 21.6212 95.6311 21.6212C93.99 21.6212 92.9122 20.7884 92.8632 19.4167H89.6298C89.8748 22.3561 92.2018 24.1197 95.7046 24.1197C99.3299 24.1197 101.485 22.3561 101.485 19.6861ZM111.802 23.5318V20.5679C111.312 20.8374 110.724 20.9843 110.087 20.9843C108.838 20.9843 108.152 20.372 108.152 18.8533V13.7093H111.9V10.7944H108.152V6.92418H104.772V10.7944H102.151V13.7093H104.772V19.6371C104.772 22.5765 106.486 24.1197 109.181 24.1197C110.185 24.1197 110.969 23.9482 111.802 23.5318ZM117.477 17.5305C117.477 14.6401 119.437 13.9298 122.327 14.1747V10.7454C120.147 10.525 118.163 11.6517 117.208 13.3174V10.7944H114.097V23.8748H117.477V17.5305ZM132.108 23.8748H135.219V10.7944H131.838V18.3634C131.838 20.127 130.736 21.1068 129.511 21.1068C128.188 21.1068 127.282 20.2985 127.282 18.4614V10.7944H123.902V19.1227C123.902 22.5275 125.812 24.1197 128.433 24.1197C130.075 24.1197 131.397 23.2869 132.108 22.1356V23.8748ZM149.995 18.2899H146.419C146.247 19.8331 145.243 21.1068 143.651 21.1068C141.936 21.1068 140.76 19.5391 140.76 17.3346C140.76 15.0565 141.936 13.5868 143.651 13.5868C145.267 13.5868 146.247 14.8116 146.419 16.3793H149.995C149.603 12.901 147.105 10.5494 143.626 10.5494C139.952 10.5494 137.282 13.4154 137.282 17.3346C137.282 21.2048 139.952 24.1197 143.626 24.1197C147.056 24.1197 149.603 21.7682 149.995 18.2899ZM160.266 23.5318V20.5679C159.776 20.8374 159.188 20.9843 158.551 20.9843C157.302 20.9843 156.616 20.372 156.616 18.8533V13.7093H160.363V10.7944H156.616V6.92418H153.235V10.7944H150.614V13.7093H153.235V19.6371C153.235 22.5765 154.95 24.1197 157.645 24.1197C158.649 24.1197 159.433 23.9482 160.266 23.5318ZM175.006 17.3346C175.006 13.5134 172.14 10.5494 168.367 10.5494C164.571 10.5494 161.729 13.5134 161.729 17.3346C161.729 21.1313 164.571 24.1197 168.367 24.1197C172.14 24.1197 175.006 21.1313 175.006 17.3346ZM165.232 17.3346C165.232 14.9096 166.677 13.5868 168.367 13.5868C170.058 13.5868 171.478 14.9096 171.478 17.3346C171.478 19.7596 170.058 21.1068 168.367 21.1068C166.653 21.1068 165.232 19.7596 165.232 17.3346ZM180.437 17.5305C180.437 14.6401 182.397 13.9298 185.287 14.1747V10.7454C183.107 10.525 181.123 11.6517 180.168 13.3174V10.7944H177.057V23.8748H180.437V17.5305ZM197.509 23.8748L201.305 17.6285L205.2 23.8748H209.781L204.171 15.032L209.462 6.28731H205.126L201.55 12.2151L198.023 6.28731H193.344L198.66 14.8851L192.952 23.8748H197.509Z" fill="#151515"/>
</svg>
