<svg width="684" height="394" viewBox="0 0 684 394" fill="none" xmlns="http://www.w3.org/2000/svg">
<mask id="mask0" style="mask-type:alpha" maskUnits="userSpaceOnUse" x="0" y="0" width="684" height="394">
<rect width="683.494" height="393.648" transform="matrix(-1 0 0 1 683.494 0)" fill="#ED5521"/>
</mask>
<g mask="url(#mask0)">
<path d="M469.739 283.284L469.688 237.413L509.093 214.786L548.447 237.516V282.976L508.478 305.962V421.664H509.709V306.68L549.679 283.694C549.679 268.096 549.627 252.498 549.679 236.849C536.133 229.05 522.639 221.251 509.145 213.452C495.599 221.2 482.105 228.999 468.559 236.798L468.61 283.335H469.739V283.284Z" fill="#F28863"/>
<path d="M429.77 167.941V75.687H428.589V167.941H429.77Z" fill="#F28863"/>
<path d="M389.851 144.903V99.1353L429.206 76.4054L508.529 122.173V214.119H509.761V121.455C482.926 106.011 456.04 90.5154 429.257 74.9688L388.723 98.3657V144.852H389.851V144.903Z" fill="#F28863"/>
<path d="M349.882 214.068V168.3L389.544 145.416L388.928 144.39L348.702 167.633L348.651 214.068H349.882Z" fill="#F28863"/>
<path d="M309.911 283.283V237.516L349.573 214.632L348.958 213.554L308.731 236.797V283.283H309.911Z" fill="#F28863"/>
<path d="M349.882 260.246V214.067H348.65V260.246H349.882Z" fill="#F28863"/>
<path d="M309.912 421.612V375.845L349.882 352.858V306.013C336.336 298.214 322.842 290.415 309.348 282.616L269.07 305.757L269.686 306.783L309.399 283.95L348.65 306.68V352.14L308.681 375.126V421.612H309.912Z" fill="#F28863"/>
<path d="M269.941 421.613V352.397H268.71V421.613H269.941Z" fill="#F28863"/>
<path d="M548.756 283.796L628.336 329.769V421.613H629.567V329.051L549.371 282.77L548.756 283.796Z" fill="#F28863"/>
<path d="M589.598 329.359V306.372H588.418V329.359H589.598Z" fill="#F28863"/>
<path d="M549.628 375.537V283.283H548.448V375.537H549.628Z" fill="#F28863"/>
<path d="M469.739 421.613V329.41H468.559V421.613H469.739Z" fill="#F28863"/>
<path d="M468.816 190.517L428.59 213.76V421.613H429.77V214.427L469.432 191.543L468.816 190.517Z" fill="#F28863"/>
<path d="M389.852 375.537V144.903H388.62V375.537H389.852Z" fill="#F28863"/>
<path d="M190.054 167.941V122.173L229.408 99.443L308.731 145.211V237.105H309.963V144.492C283.128 129.048 256.242 113.553 229.459 98.0063L188.925 121.403V167.889H190.054V167.941Z" fill="#F28863"/>
<path d="M230.023 283.232V98.7759H228.792V283.232H230.023Z" fill="#F28863"/>
<path d="M150.136 144.903V52.9571L189.49 30.2271L268.814 75.9948V144.852H270.045V75.3278C243.21 59.8838 216.376 44.3884 189.541 28.8418C176.047 36.6408 162.501 44.4398 149.007 52.2387V144.852H150.136V144.903Z" fill="#F28863"/>
<path d="M110.166 214.068L110.115 168.197L149.52 145.57L188.874 168.3V213.76L148.904 236.746V421.613H150.136V237.413L190.105 214.427C190.105 198.829 190.105 183.231 190.105 167.582C176.56 159.783 163.066 151.984 149.571 144.185C136.026 151.932 122.532 159.731 108.986 167.53L109.037 214.119H110.166V214.068Z" fill="#F28863"/>
<path d="M190.054 75.6869V29.5601H188.874V75.6869H190.054Z" fill="#F28863"/>
<path d="M110.114 421.613V306.629L149.468 283.899L228.792 329.667V421.561H230.023V329C203.189 313.556 176.303 298.06 149.519 282.514L108.985 305.911V421.613H110.114Z" fill="#F28863"/>
<path d="M30.277 421.612V76.0459L69.5798 53.316L149.211 99.2889L149.827 98.2114L69.6311 51.9307L29.0456 75.3276V421.612H30.277Z" fill="#F28863"/>
<path d="M-10.0008 -38.7836L69.0152 6.83016V421.613H70.1953V6.16314L-10.0008 -40.1689V-38.7836Z" fill="#F28863"/>
<path d="M110.114 306.27V260.143H108.934V306.27H110.114Z" fill="#F28863"/>
<path d="M30.2773 75.6869V29.5601H29.0459V75.6869H30.2773Z" fill="#F28863"/>
<path d="M509.71 260.246V214.067H508.479V260.246H509.71Z" fill="#F28863"/>
<path d="M309.912 329.41V283.283H308.732V329.41H309.912Z" fill="#F28863"/>
<path d="M150.135 191.03V144.903H148.903V191.03H150.135Z" fill="#F28863"/>
<path d="M548.704 306.783L628.592 352.961L629.208 351.883L549.32 305.757L548.704 306.783Z" fill="#F28863"/>
<path d="M349.573 328.897L309.603 305.859L309.039 306.886L348.958 329.923L349.573 328.897Z" fill="#F28863"/>
<path d="M549.319 259.63L509.35 236.541L508.734 237.619L548.704 260.656L549.319 259.63Z" fill="#F28863"/>
<path d="M428.897 99.2891L508.786 145.416L509.401 144.39L429.513 98.2117L428.897 99.2891Z" fill="#F28863"/>
<path d="M229.101 122.327L309.04 168.505L309.604 167.428L229.716 121.301L229.101 122.327Z" fill="#F28863"/>
<path d="M189.746 190.517L149.828 167.427L149.212 168.505L189.182 191.543L189.746 190.517Z" fill="#F28863"/>
<path d="M149.16 306.783L229.1 352.91L229.664 351.883L149.776 305.757L149.16 306.783Z" fill="#F28863"/>
<path d="M69.3232 76.2L149.211 122.327L149.827 121.301L69.8876 75.1738L69.3232 76.2Z" fill="#F28863"/>
<path d="M-10.0005 -15.6945L69.3233 30.0732L69.8877 29.047L-10.0005 -17.0798V-15.6945Z" fill="#F28863"/>
<path d="M189.182 53.1622L269.07 99.2891L269.686 98.2116L189.746 52.0847L189.182 53.1622Z" fill="#F28863"/>
</g>
</svg>
