<svg width="568" height="198" viewBox="0 0 568 198" fill="none" xmlns="http://www.w3.org/2000/svg">
<mask id="mask0" style="mask-type:alpha" maskUnits="userSpaceOnUse" x="0" y="0" width="568" height="198">
<rect x="0.357422" y="0.824219" width="566.659" height="196.824" fill="#ED5521"/>
</mask>
<g mask="url(#mask0)">
<path d="M254.082 168.765V76.5112H255.262V168.765H254.082Z" fill="#F28863"/>
<path d="M294 145.727V99.9595L254.646 77.2296L175.322 122.997V214.943H174.091V122.279C200.925 106.835 227.811 91.3396 254.595 75.793L295.129 99.1899V145.676H294V145.727Z" fill="#F28863"/>
<path d="M333.97 214.892V169.124L294.308 146.24L294.924 145.214L335.15 168.457L335.201 214.892H333.97Z" fill="#F28863"/>
<path d="M215.035 191.341L255.261 214.584V422.437H254.081V215.251L214.419 192.367L215.035 191.341Z" fill="#F28863"/>
<path d="M294 376.361V145.727H295.231V376.361H294Z" fill="#F28863"/>
<path d="M493.798 168.765V122.997L454.444 100.267L375.12 146.035V237.929H373.889V145.317C400.723 129.873 427.609 114.377 454.393 98.8306L494.927 122.228V168.714H493.798V168.765Z" fill="#F28863"/>
<path d="M453.828 284.056V99.6001H455.06V284.056H453.828Z" fill="#F28863"/>
<path d="M533.716 145.727V53.7813L494.362 31.0514L415.039 76.819V145.676H413.807V76.152C440.642 60.708 467.476 45.2127 494.311 29.666C507.805 37.465 521.351 45.264 534.845 53.063V145.676H533.716V145.727Z" fill="#F28863"/>
<path d="M573.686 214.892L573.737 169.021L534.331 146.394L494.978 169.124V214.584L534.947 237.57V422.437H533.716V238.237L493.746 215.251C493.746 199.653 493.746 184.055 493.746 168.406C507.292 160.607 520.786 152.808 534.28 145.009C547.826 152.756 561.32 160.555 574.866 168.354L574.814 214.943H573.686V214.892Z" fill="#F28863"/>
<path d="M493.797 76.5111V30.3843H494.977V76.5111H493.797Z" fill="#F28863"/>
<path d="M653.574 422.437V76.8701L614.271 54.1402L534.64 100.113L534.024 99.0357L614.22 52.7549L654.805 76.1518V422.437H653.574Z" fill="#F28863"/>
<path d="M533.716 191.854V145.727H534.948V191.854H533.716Z" fill="#F28863"/>
<path d="M254.954 100.113L175.066 146.24L174.45 145.214L254.338 99.0359L254.954 100.113Z" fill="#F28863"/>
<path d="M454.751 123.151L374.812 169.329L374.248 168.252L454.136 122.125L454.751 123.151Z" fill="#F28863"/>
<path d="M494.105 191.341L534.024 168.252L534.64 169.329L494.67 192.367L494.105 191.341Z" fill="#F28863"/>
<path d="M614.528 77.0242L534.64 123.151L534.024 122.125L613.963 75.998L614.528 77.0242Z" fill="#F28863"/>
<path d="M494.67 53.9864L414.782 100.113L414.167 99.0358L494.106 52.9089L494.67 53.9864Z" fill="#F28863"/>
</g>
</svg>
